%TF.GenerationSoftware,KiCad,Pcbnew,8.0.8*%
%TF.CreationDate,2025-06-02T22:50:19+02:00*%
%TF.ProjectId,autoZalivanje,6175746f-5a61-46c6-9976-616e6a652e6b,rev?*%
%TF.SameCoordinates,Original*%
%TF.FileFunction,Copper,L2,Bot*%
%TF.FilePolarity,Positive*%
%FSLAX46Y46*%
G04 Gerber Fmt 4.6, Leading zero omitted, Abs format (unit mm)*
G04 Created by KiCad (PCBNEW 8.0.8) date 2025-06-02 22:50:19*
%MOMM*%
%LPD*%
G01*
G04 APERTURE LIST*
%TA.AperFunction,ComponentPad*%
%ADD10C,2.000000*%
%TD*%
%TA.AperFunction,ComponentPad*%
%ADD11O,1.700000X1.700000*%
%TD*%
%TA.AperFunction,ComponentPad*%
%ADD12R,1.700000X1.700000*%
%TD*%
%TA.AperFunction,ComponentPad*%
%ADD13R,1.800000X1.800000*%
%TD*%
%TA.AperFunction,ComponentPad*%
%ADD14C,1.800000*%
%TD*%
%TA.AperFunction,ComponentPad*%
%ADD15R,1.600000X1.600000*%
%TD*%
%TA.AperFunction,ComponentPad*%
%ADD16O,1.600000X1.600000*%
%TD*%
%TA.AperFunction,ViaPad*%
%ADD17C,0.600000*%
%TD*%
%TA.AperFunction,Conductor*%
%ADD18C,0.200000*%
%TD*%
G04 APERTURE END LIST*
D10*
%TO.P,SW1,2,2*%
%TO.N,Net-(A1-D7)*%
X112050000Y-96600000D03*
X112050000Y-103100000D03*
%TO.P,SW1,1,1*%
%TO.N,Net-(R1-Pad1)*%
X107550000Y-96600000D03*
X107550000Y-103100000D03*
%TD*%
D11*
%TO.P,J6,3,Pin_3*%
%TO.N,/VCC*%
X128575000Y-54525000D03*
%TO.P,J6,2,Pin_2*%
%TO.N,/DATA*%
X128575000Y-51985000D03*
D12*
%TO.P,J6,1,Pin_1*%
%TO.N,/GND*%
X128575000Y-49445000D03*
%TD*%
%TO.P,J5,1,Pin_1*%
%TO.N,/NC*%
X123350000Y-106350000D03*
D11*
%TO.P,J5,2,Pin_2*%
%TO.N,/NO*%
X120810000Y-106350000D03*
%TO.P,J5,3,Pin_3*%
%TO.N,/COM*%
X118270000Y-106350000D03*
%TD*%
D12*
%TO.P,J4,1,Pin_1*%
%TO.N,/COM*%
X120500000Y-111950000D03*
D11*
%TO.P,J4,2,Pin_2*%
%TO.N,/NO*%
X120500000Y-114490000D03*
%TD*%
D12*
%TO.P,J3,1,Pin_1*%
%TO.N,/IN*%
X122475000Y-94500000D03*
D11*
%TO.P,J3,2,Pin_2*%
%TO.N,/GND*%
X119935000Y-94500000D03*
%TO.P,J3,3,Pin_3*%
%TO.N,/VCC*%
X117395000Y-94500000D03*
%TD*%
D12*
%TO.P,J2,1,Pin_1*%
%TO.N,/GND*%
X128650000Y-62135000D03*
D11*
%TO.P,J2,2,Pin_2*%
%TO.N,/RST*%
X128650000Y-64675000D03*
%TO.P,J2,3,Pin_3*%
%TO.N,/DAT*%
X128650000Y-67215000D03*
%TO.P,J2,4,Pin_4*%
%TO.N,/CLK*%
X128650000Y-69755000D03*
%TO.P,J2,5,Pin_5*%
%TO.N,/VCC*%
X128650000Y-72295000D03*
%TD*%
D12*
%TO.P,J1,1,Pin_1*%
%TO.N,/VCC*%
X150325000Y-87125000D03*
D11*
%TO.P,J1,2,Pin_2*%
%TO.N,/SDA*%
X150325000Y-89665000D03*
%TO.P,J1,3,Pin_3*%
%TO.N,/SCL*%
X150325000Y-92205000D03*
%TO.P,J1,4,Pin_4*%
%TO.N,/GND*%
X150325000Y-94745000D03*
%TD*%
D13*
%TO.P,D1,1,K*%
%TO.N,/GND*%
X119510000Y-80250000D03*
D14*
%TO.P,D1,2,A*%
%TO.N,Net-(D1-A)*%
X122050000Y-80250000D03*
%TD*%
D15*
%TO.P,A1,1,TX1*%
%TO.N,unconnected-(A1-TX1-Pad1)*%
X128070000Y-81560000D03*
D16*
%TO.P,A1,2,RX1*%
%TO.N,unconnected-(A1-RX1-Pad2)*%
X128070000Y-84100000D03*
%TO.P,A1,3,~{RESET}*%
%TO.N,unconnected-(A1-~{RESET}-Pad3)*%
X128070000Y-86640000D03*
%TO.P,A1,4,GND*%
%TO.N,/GND*%
X128070000Y-89180000D03*
%TO.P,A1,5,D2*%
%TO.N,/DATA*%
X128070000Y-91720000D03*
%TO.P,A1,6,D3*%
%TO.N,/CLK*%
X128070000Y-94260000D03*
%TO.P,A1,7,D4*%
%TO.N,/DAT*%
X128070000Y-96800000D03*
%TO.P,A1,8,D5*%
%TO.N,/RST*%
X128070000Y-99340000D03*
%TO.P,A1,9,D6*%
%TO.N,/IN*%
X128070000Y-101880000D03*
%TO.P,A1,10,D7*%
%TO.N,Net-(A1-D7)*%
X128070000Y-104420000D03*
%TO.P,A1,11,D8*%
%TO.N,Net-(A1-D8)*%
X128070000Y-106960000D03*
%TO.P,A1,12,D9*%
%TO.N,unconnected-(A1-D9-Pad12)*%
X128070000Y-109500000D03*
%TO.P,A1,13,D10*%
%TO.N,unconnected-(A1-D10-Pad13)*%
X128070000Y-112040000D03*
%TO.P,A1,14,MOSI*%
%TO.N,unconnected-(A1-MOSI-Pad14)*%
X128070000Y-114580000D03*
%TO.P,A1,15,MISO*%
%TO.N,unconnected-(A1-MISO-Pad15)*%
X128070000Y-117120000D03*
%TO.P,A1,16,SCK*%
%TO.N,unconnected-(A1-SCK-Pad16)*%
X143310000Y-117120000D03*
%TO.P,A1,17,3V3*%
%TO.N,unconnected-(A1-3V3-Pad17)*%
X143310000Y-114580000D03*
%TO.P,A1,18,AREF*%
%TO.N,unconnected-(A1-AREF-Pad18)*%
X143310000Y-112040000D03*
%TO.P,A1,19,A0*%
%TO.N,unconnected-(A1-A0-Pad19)*%
X143310000Y-109500000D03*
%TO.P,A1,20,A1*%
%TO.N,unconnected-(A1-A1-Pad20)*%
X143310000Y-106960000D03*
%TO.P,A1,21,A2*%
%TO.N,unconnected-(A1-A2-Pad21)*%
X143310000Y-104420000D03*
%TO.P,A1,22,A3*%
%TO.N,unconnected-(A1-A3-Pad22)*%
X143310000Y-101880000D03*
%TO.P,A1,23,SDA/A4*%
%TO.N,/SDA*%
X143310000Y-99340000D03*
%TO.P,A1,24,SCL/A5*%
%TO.N,/SCL*%
X143310000Y-96800000D03*
%TO.P,A1,25,A6*%
%TO.N,unconnected-(A1-A6-Pad25)*%
X143310000Y-94260000D03*
%TO.P,A1,26,A7*%
%TO.N,unconnected-(A1-A7-Pad26)*%
X143310000Y-91720000D03*
%TO.P,A1,27,+5V*%
%TO.N,/VCC*%
X143310000Y-89180000D03*
%TO.P,A1,28,~{RESET}*%
%TO.N,unconnected-(A1-~{RESET}-Pad28)*%
X143310000Y-86640000D03*
%TO.P,A1,29,GND*%
%TO.N,/GND*%
X143310000Y-84100000D03*
%TO.P,A1,30,VIN*%
%TO.N,unconnected-(A1-VIN-Pad30)*%
X143310000Y-81560000D03*
%TD*%
D17*
%TO.N,/VCC*%
X129200000Y-71000000D03*
X144554310Y-87016430D03*
X129200000Y-73622819D03*
%TO.N,/GND*%
X122500000Y-92000000D03*
X128800000Y-87715686D03*
%TO.N,/VCC*%
X145825735Y-87674265D03*
%TD*%
D18*
%TO.N,/VCC*%
X129800000Y-70400000D02*
X129200000Y-71000000D01*
X129800000Y-55750000D02*
X129800000Y-70400000D01*
X128575000Y-54525000D02*
X129800000Y-55750000D01*
X143765635Y-83000000D02*
X144554310Y-83788675D01*
X132950000Y-83000000D02*
X143765635Y-83000000D01*
X144554310Y-83788675D02*
X144554310Y-87016430D01*
X127245000Y-85200000D02*
X130750000Y-85200000D01*
X126970000Y-84925000D02*
X127245000Y-85200000D01*
X130750000Y-85200000D02*
X132950000Y-83000000D01*
X126970000Y-75852819D02*
X129200000Y-73622819D01*
X126970000Y-84925000D02*
X126970000Y-75852819D01*
X117395000Y-94500000D02*
X126970000Y-84925000D01*
%TO.N,/GND*%
X125320000Y-89180000D02*
X122500000Y-92000000D01*
X128070000Y-89180000D02*
X125320000Y-89180000D01*
X132415686Y-84100000D02*
X128800000Y-87715686D01*
X143310000Y-84100000D02*
X132415686Y-84100000D01*
%TO.N,/VCC*%
X146375000Y-87125000D02*
X145825735Y-87674265D01*
X150325000Y-87125000D02*
X146375000Y-87125000D01*
%TD*%
M02*
