%TF.GenerationSoftware,KiCad,Pcbnew,8.0.8*%
%TF.CreationDate,2025-06-02T22:50:19+02:00*%
%TF.ProjectId,autoZalivanje,6175746f-5a61-46c6-9976-616e6a652e6b,rev?*%
%TF.SameCoordinates,Original*%
%TF.FileFunction,Soldermask,Top*%
%TF.FilePolarity,Negative*%
%FSLAX46Y46*%
G04 Gerber Fmt 4.6, Leading zero omitted, Abs format (unit mm)*
G04 Created by KiCad (PCBNEW 8.0.8) date 2025-06-02 22:50:19*
%MOMM*%
%LPD*%
G01*
G04 APERTURE LIST*
G04 Aperture macros list*
%AMRoundRect*
0 Rectangle with rounded corners*
0 $1 Rounding radius*
0 $2 $3 $4 $5 $6 $7 $8 $9 X,Y pos of 4 corners*
0 Add a 4 corners polygon primitive as box body*
4,1,4,$2,$3,$4,$5,$6,$7,$8,$9,$2,$3,0*
0 Add four circle primitives for the rounded corners*
1,1,$1+$1,$2,$3*
1,1,$1+$1,$4,$5*
1,1,$1+$1,$6,$7*
1,1,$1+$1,$8,$9*
0 Add four rect primitives between the rounded corners*
20,1,$1+$1,$2,$3,$4,$5,0*
20,1,$1+$1,$4,$5,$6,$7,0*
20,1,$1+$1,$6,$7,$8,$9,0*
20,1,$1+$1,$8,$9,$2,$3,0*%
G04 Aperture macros list end*
%ADD10RoundRect,0.250000X0.262500X0.450000X-0.262500X0.450000X-0.262500X-0.450000X0.262500X-0.450000X0*%
%ADD11RoundRect,0.250000X-0.262500X-0.450000X0.262500X-0.450000X0.262500X0.450000X-0.262500X0.450000X0*%
%ADD12C,2.000000*%
%ADD13O,1.700000X1.700000*%
%ADD14R,1.700000X1.700000*%
%ADD15R,1.800000X1.800000*%
%ADD16C,1.800000*%
%ADD17R,1.600000X1.600000*%
%ADD18O,1.600000X1.600000*%
G04 APERTURE END LIST*
D10*
%TO.C,R1*%
X121500000Y-100500000D03*
X119675000Y-100500000D03*
%TD*%
D11*
%TO.C,R2*%
X119675000Y-88000000D03*
X121500000Y-88000000D03*
%TD*%
D12*
%TO.C,SW1*%
X112050000Y-96600000D03*
X112050000Y-103100000D03*
X107550000Y-96600000D03*
X107550000Y-103100000D03*
%TD*%
D13*
%TO.C,J6*%
X128575000Y-54525000D03*
X128575000Y-51985000D03*
D14*
X128575000Y-49445000D03*
%TD*%
%TO.C,J5*%
X123350000Y-106350000D03*
D13*
X120810000Y-106350000D03*
X118270000Y-106350000D03*
%TD*%
D14*
%TO.C,J4*%
X120500000Y-111950000D03*
D13*
X120500000Y-114490000D03*
%TD*%
D14*
%TO.C,J3*%
X122475000Y-94500000D03*
D13*
X119935000Y-94500000D03*
X117395000Y-94500000D03*
%TD*%
D14*
%TO.C,J2*%
X128650000Y-62135000D03*
D13*
X128650000Y-64675000D03*
X128650000Y-67215000D03*
X128650000Y-69755000D03*
X128650000Y-72295000D03*
%TD*%
D14*
%TO.C,J1*%
X150325000Y-87125000D03*
D13*
X150325000Y-89665000D03*
X150325000Y-92205000D03*
X150325000Y-94745000D03*
%TD*%
D15*
%TO.C,D1*%
X119510000Y-80250000D03*
D16*
X122050000Y-80250000D03*
%TD*%
D17*
%TO.C,A1*%
X128070000Y-81560000D03*
D18*
X128070000Y-84100000D03*
X128070000Y-86640000D03*
X128070000Y-89180000D03*
X128070000Y-91720000D03*
X128070000Y-94260000D03*
X128070000Y-96800000D03*
X128070000Y-99340000D03*
X128070000Y-101880000D03*
X128070000Y-104420000D03*
X128070000Y-106960000D03*
X128070000Y-109500000D03*
X128070000Y-112040000D03*
X128070000Y-114580000D03*
X128070000Y-117120000D03*
X143310000Y-117120000D03*
X143310000Y-114580000D03*
X143310000Y-112040000D03*
X143310000Y-109500000D03*
X143310000Y-106960000D03*
X143310000Y-104420000D03*
X143310000Y-101880000D03*
X143310000Y-99340000D03*
X143310000Y-96800000D03*
X143310000Y-94260000D03*
X143310000Y-91720000D03*
X143310000Y-89180000D03*
X143310000Y-86640000D03*
X143310000Y-84100000D03*
X143310000Y-81560000D03*
%TD*%
M02*
