M48
; DRILL file {KiCad 8.0.8} date 2025-06-02T22:50:30+0200
; FORMAT={-:-/ absolute / inch / decimal}
; #@! TF.CreationDate,2025-06-02T22:50:30+02:00
; #@! TF.GenerationSoftware,Kicad,Pcbnew,8.0.8
; #@! TF.FileFunction,Plated,1,2,PTH
FMAT,2
INCH
; #@! TA.AperFunction,Plated,PTH,ViaDrill
T1C0.0118
; #@! TA.AperFunction,Plated,PTH,ComponentDrill
T2C0.0354
; #@! TA.AperFunction,Plated,PTH,ComponentDrill
T3C0.0394
; #@! TA.AperFunction,Plated,PTH,ComponentDrill
T4C0.0433
%
G90
G05
T1
X4.8228Y-3.622
X5.0709Y-3.4534
X5.0866Y-2.7953
X5.0866Y-2.8985
X5.6911Y-3.4258
X5.7412Y-3.4517
T2
X4.7051Y-3.1594
X4.8051Y-3.1594
T3
X4.6219Y-3.7205
X4.6563Y-4.187
X4.7219Y-3.7205
X4.7441Y-4.4075
X4.7441Y-4.5075
X4.7563Y-4.187
X4.8219Y-3.7205
X4.8563Y-4.187
X5.0421Y-3.211
X5.0421Y-3.311
X5.0421Y-3.411
X5.0421Y-3.511
X5.0421Y-3.611
X5.0421Y-3.711
X5.0421Y-3.811
X5.0421Y-3.911
X5.0421Y-4.011
X5.0421Y-4.111
X5.0421Y-4.211
X5.0421Y-4.311
X5.0421Y-4.411
X5.0421Y-4.511
X5.0421Y-4.611
X5.062Y-1.9467
X5.062Y-2.0467
X5.062Y-2.1467
X5.065Y-2.4463
X5.065Y-2.5463
X5.065Y-2.6463
X5.065Y-2.7463
X5.065Y-2.8463
X5.6421Y-3.211
X5.6421Y-3.311
X5.6421Y-3.411
X5.6421Y-3.511
X5.6421Y-3.611
X5.6421Y-3.711
X5.6421Y-3.811
X5.6421Y-3.911
X5.6421Y-4.011
X5.6421Y-4.111
X5.6421Y-4.211
X5.6421Y-4.311
X5.6421Y-4.411
X5.6421Y-4.511
X5.6421Y-4.611
X5.9183Y-3.4301
X5.9183Y-3.5301
X5.9183Y-3.6301
X5.9183Y-3.7301
T4
X4.2343Y-3.8031
X4.2343Y-4.0591
X4.4114Y-3.8031
X4.4114Y-4.0591
M30
