%TF.GenerationSoftware,KiCad,Pcbnew,8.0.8*%
%TF.CreationDate,2025-06-02T22:50:19+02:00*%
%TF.ProjectId,autoZalivanje,6175746f-5a61-46c6-9976-616e6a652e6b,rev?*%
%TF.SameCoordinates,Original*%
%TF.FileFunction,Soldermask,Bot*%
%TF.FilePolarity,Negative*%
%FSLAX46Y46*%
G04 Gerber Fmt 4.6, Leading zero omitted, Abs format (unit mm)*
G04 Created by KiCad (PCBNEW 8.0.8) date 2025-06-02 22:50:19*
%MOMM*%
%LPD*%
G01*
G04 APERTURE LIST*
%ADD10C,2.000000*%
%ADD11O,1.700000X1.700000*%
%ADD12R,1.700000X1.700000*%
%ADD13R,1.800000X1.800000*%
%ADD14C,1.800000*%
%ADD15R,1.600000X1.600000*%
%ADD16O,1.600000X1.600000*%
G04 APERTURE END LIST*
D10*
%TO.C,SW1*%
X112050000Y-96600000D03*
X112050000Y-103100000D03*
X107550000Y-96600000D03*
X107550000Y-103100000D03*
%TD*%
D11*
%TO.C,J6*%
X128575000Y-54525000D03*
X128575000Y-51985000D03*
D12*
X128575000Y-49445000D03*
%TD*%
%TO.C,J5*%
X123350000Y-106350000D03*
D11*
X120810000Y-106350000D03*
X118270000Y-106350000D03*
%TD*%
D12*
%TO.C,J4*%
X120500000Y-111950000D03*
D11*
X120500000Y-114490000D03*
%TD*%
D12*
%TO.C,J3*%
X122475000Y-94500000D03*
D11*
X119935000Y-94500000D03*
X117395000Y-94500000D03*
%TD*%
D12*
%TO.C,J2*%
X128650000Y-62135000D03*
D11*
X128650000Y-64675000D03*
X128650000Y-67215000D03*
X128650000Y-69755000D03*
X128650000Y-72295000D03*
%TD*%
D12*
%TO.C,J1*%
X150325000Y-87125000D03*
D11*
X150325000Y-89665000D03*
X150325000Y-92205000D03*
X150325000Y-94745000D03*
%TD*%
D13*
%TO.C,D1*%
X119510000Y-80250000D03*
D14*
X122050000Y-80250000D03*
%TD*%
D15*
%TO.C,A1*%
X128070000Y-81560000D03*
D16*
X128070000Y-84100000D03*
X128070000Y-86640000D03*
X128070000Y-89180000D03*
X128070000Y-91720000D03*
X128070000Y-94260000D03*
X128070000Y-96800000D03*
X128070000Y-99340000D03*
X128070000Y-101880000D03*
X128070000Y-104420000D03*
X128070000Y-106960000D03*
X128070000Y-109500000D03*
X128070000Y-112040000D03*
X128070000Y-114580000D03*
X128070000Y-117120000D03*
X143310000Y-117120000D03*
X143310000Y-114580000D03*
X143310000Y-112040000D03*
X143310000Y-109500000D03*
X143310000Y-106960000D03*
X143310000Y-104420000D03*
X143310000Y-101880000D03*
X143310000Y-99340000D03*
X143310000Y-96800000D03*
X143310000Y-94260000D03*
X143310000Y-91720000D03*
X143310000Y-89180000D03*
X143310000Y-86640000D03*
X143310000Y-84100000D03*
X143310000Y-81560000D03*
%TD*%
M02*
